<svg width="101" height="101" viewBox="0 0 101 101" fill="none" xmlns="http://www.w3.org/2000/svg">
<g filter="url(#filter0_f_13_498)">
<rect x="47.7188" y="6" width="67" height="59" rx="10" transform="rotate(45 47.7188 6)" fill="white"/>
<path d="M37.2159 51.6986L38.2793 60.855L34.8266 60.7169L33.7908 51.6986H37.2159ZM50.6399 48.3564L49.3693 49.627C47.8593 51.1369 46.3171 52.3016 44.7427 53.1211C43.1683 53.9405 41.6077 54.4147 40.0609 54.5436C38.5141 54.6725 37.0225 54.4607 35.5862 53.9083C34.1591 53.365 32.8333 52.4812 31.6088 51.2566C30.421 50.0689 29.551 48.7569 28.9985 47.3206C28.4553 45.8935 28.2389 44.3973 28.3494 42.8321C28.4691 41.2761 28.9295 39.7017 29.7305 38.1088C30.5315 36.516 31.687 34.9646 33.197 33.4546L34.4676 32.1841C35.9775 30.6741 37.5197 29.5186 39.0941 28.7176C40.687 27.9166 42.2614 27.4562 43.8174 27.3365C45.3826 27.2076 46.8788 27.4148 48.3059 27.958C49.7422 28.5104 51.0542 29.3805 52.2419 30.5682C53.4665 31.7928 54.3549 33.1232 54.9074 34.5595C55.4598 35.9958 55.667 37.492 55.5289 39.048C55.4 40.5948 54.9258 42.1554 54.1064 43.7298C53.3053 45.3042 52.1498 46.8464 50.6399 48.3564ZM46.7314 46.9891L48.0297 45.6909C49.2266 44.494 50.1611 43.3109 50.8332 42.1416C51.5145 40.9815 51.9335 39.8536 52.09 38.7579C52.2465 37.6623 52.1498 36.6173 51.8 35.6229C51.4501 34.6286 50.8424 33.6986 49.977 32.8332C49.1575 32.0137 48.2506 31.4291 47.2563 31.0792C46.2711 30.7385 45.2261 30.6419 44.1212 30.7892C43.0164 30.9365 41.8747 31.3416 40.6962 32.0045C39.5177 32.6674 38.33 33.5974 37.133 34.7943L35.8348 36.0925C34.6287 37.2986 33.6896 38.4955 33.0174 39.6833C32.3545 40.8618 31.9448 42.0081 31.7883 43.1221C31.6502 44.2362 31.7561 45.2904 32.1059 46.2848C32.4558 47.2791 33.0405 48.186 33.8599 49.0055C34.7254 49.8709 35.6553 50.4786 36.6497 50.8285C37.644 51.1784 38.6844 51.2704 39.7709 51.1047C40.8757 50.939 42.0082 50.5154 43.1683 49.8341C44.3376 49.1436 45.5253 48.1952 46.7314 46.9891ZM64.1743 43.0531L70.8311 49.7098C72.3411 51.2198 73.3861 52.7251 73.9661 54.2259C74.5554 55.7359 74.6705 57.2136 74.3114 58.6591C73.9707 60.1047 73.1467 61.4811 71.8393 62.7885C70.9186 63.7092 69.8874 64.3629 68.7457 64.7496C67.6224 65.1363 66.4439 65.2468 65.2101 65.0811C63.9948 64.9154 62.7749 64.478 61.5503 63.7691L60.5145 63.3133L54.2583 57.0571L56.3989 54.8612L61.1222 59.5845C62.0797 60.542 63.0419 61.1727 64.0086 61.4765C64.9846 61.7711 65.9191 61.7942 66.8122 61.5456C67.7053 61.297 68.4971 60.8274 69.1876 60.1369C69.961 59.3635 70.4858 58.5348 70.762 57.651C71.0382 56.7671 71.006 55.8418 70.6654 54.875C70.3431 53.9083 69.671 52.9139 68.649 51.8919L64.6577 47.9006L46.7314 65.8269L44.066 63.1614L64.1743 43.0531ZM55.8189 74.9143L60.0449 60.9103L62.8347 63.6724L58.8296 77.5936L58.6639 77.7593L55.8189 74.9143Z" fill="#242424"/>
</g>
<defs>
<filter id="filter0_f_13_498" x="0.141602" y="0.142151" width="100.811" height="100.811" filterUnits="userSpaceOnUse" color-interpolation-filters="sRGB">
<feFlood flood-opacity="0" result="BackgroundImageFix"/>
<feBlend mode="normal" in="SourceGraphic" in2="BackgroundImageFix" result="shape"/>
<feGaussianBlur stdDeviation="5" result="effect1_foregroundBlur_13_498"/>
</filter>
</defs>
</svg>
