<svg width="24" height="24" viewBox="0 0 24 24" fill="none" xmlns="http://www.w3.org/2000/svg">
<path d="M24 4.82744C22.4903 4.89702 22.5233 4.89134 22.3526 4.90562L23.2467 2.35222C23.2467 2.35222 20.4558 3.37889 19.7483 3.56254C17.8901 1.89244 15.1282 1.81865 13.1536 3.03227C11.5366 4.02635 10.6686 5.73344 10.9581 7.72874C7.8111 7.29204 5.15955 5.80028 3.0661 3.28551L2.40399 2.49028L1.90924 3.39885C1.28394 4.54692 1.07629 5.8596 1.3244 7.09501C1.42621 7.60185 1.59924 8.08525 1.83893 8.53789L1.27094 8.31779L1.20355 9.26683C1.13525 10.2309 1.45624 11.3562 2.06232 12.2769C2.23297 12.5362 2.4527 12.8209 2.7312 13.1018L2.43768 13.0567L2.79584 14.1442C3.2666 15.573 4.24438 16.6784 5.51331 17.2929C4.24603 17.8307 3.22229 18.1738 1.53955 18.7273L0 19.2334L1.422 20.0109C1.96417 20.3074 3.88 21.2974 5.77295 21.5944C9.98071 22.2543 14.7182 21.7169 17.9075 18.8445C20.5939 16.4252 21.4753 12.9837 21.2922 9.40233C21.2646 8.86015 21.4131 8.34269 21.7104 7.94554C22.3061 7.15031 23.9963 4.83275 24 4.82744ZM20.586 7.10325C20.0922 7.76262 19.8448 8.60472 19.8891 9.4741C20.0739 13.0866 19.0909 15.8881 16.9675 17.8005C14.4869 20.0345 10.4859 20.9114 5.99066 20.2063C5.17657 20.0787 4.33521 19.7928 3.63885 19.5074C5.04968 19.022 6.13916 18.5893 7.89862 17.7565L10.3548 16.594L7.64301 16.4204C6.34406 16.3373 5.26245 15.7077 4.5976 14.6857C4.95062 14.6651 5.29102 14.608 5.62994 14.5135L8.21631 13.7932L5.60834 13.1545C4.34106 12.8442 3.61871 12.0859 3.23584 11.5044C2.98444 11.1222 2.82019 10.7308 2.72168 10.3699C2.98315 10.44 3.28802 10.49 3.77966 10.5387L6.19354 10.7774L4.28101 9.2855C2.90295 8.21068 2.35071 6.59587 2.75555 5.0435C7.05634 9.50432 12.106 9.16905 12.6143 9.28697C12.5024 8.20024 12.4995 8.19768 12.4702 8.09422C11.8193 5.79313 13.2458 4.62474 13.8893 4.22923C15.2333 3.40324 17.3666 3.27873 18.8443 4.63957C19.1635 4.93327 19.595 5.04881 19.999 4.94847C20.3615 4.85838 20.6591 4.76298 20.9504 4.65916L20.3439 6.39097L21.1181 6.39152C20.972 6.58745 20.7968 6.822 20.586 7.10325Z" fill="white"/>
</svg>
