<svg width="152" height="24" viewBox="0 0 152 24" fill="none" xmlns="http://www.w3.org/2000/svg">
<g opacity="0.5">
<path d="M17 1.99902H7C4.23858 1.99902 2 4.2376 2 6.99902V16.999C2 19.7604 4.23858 21.999 7 21.999H17C19.7614 21.999 22 19.7604 22 16.999V6.99902C22 4.2376 19.7614 1.99902 17 1.99902Z" stroke="black" stroke-width="2" stroke-linecap="round" stroke-linejoin="round"/>
<path d="M15.9997 11.3691C16.1231 12.2013 15.981 13.0513 15.5935 13.7981C15.206 14.5449 14.5929 15.1505 13.8413 15.5288C13.0898 15.907 12.2382 16.0387 11.4075 15.905C10.5768 15.7713 9.80947 15.3792 9.21455 14.7842C8.61962 14.1893 8.22744 13.422 8.09377 12.5913C7.96011 11.7606 8.09177 10.909 8.47003 10.1575C8.84829 9.40593 9.45389 8.79282 10.2007 8.40532C10.9475 8.01782 11.7975 7.87567 12.6297 7.99908C13.4786 8.12497 14.2646 8.52054 14.8714 9.12739C15.4782 9.73423 15.8738 10.5202 15.9997 11.3691Z" stroke="black" stroke-width="2" stroke-linecap="round" stroke-linejoin="round"/>
<path d="M17.5 6.49902H17.51" stroke="black" stroke-width="2" stroke-linecap="round" stroke-linejoin="round"/>
<path d="M82 2H79C77.6739 2 76.4021 2.52678 75.4645 3.46447C74.5268 4.40215 74 5.67392 74 7V10H71V14H74V22H78V14H81L82 10H78V7C78 6.73478 78.1054 6.48043 78.2929 6.29289C78.4804 6.10536 78.7348 6 79 6H82V2Z" stroke="black" stroke-width="2" stroke-linecap="round" stroke-linejoin="round"/>
<path d="M151 3.00005C150.042 3.67552 148.982 4.19216 147.86 4.53005C147.258 3.83756 146.457 3.34674 145.567 3.12397C144.677 2.90121 143.739 2.95724 142.882 3.2845C142.025 3.61176 141.288 4.19445 140.773 4.95376C140.258 5.71308 139.988 6.61238 140 7.53005V8.53005C138.243 8.57561 136.501 8.18586 134.931 7.39549C133.361 6.60513 132.01 5.43868 131 4.00005C131 4.00005 127 13 136 17C133.941 18.398 131.487 19.099 129 19C138 24 149 19 149 7.50005C148.999 7.2215 148.972 6.94364 148.92 6.67005C149.941 5.66354 150.661 4.39276 151 3.00005V3.00005Z" stroke="black" stroke-width="2" stroke-linecap="round" stroke-linejoin="round"/>
</g>
</svg>
