<svg width="48" height="48" viewBox="0 0 48 48" fill="none" xmlns="http://www.w3.org/2000/svg">
<g clip-path="url(#clip0_13_475)">
<path d="M4.5 3C4.10218 3 3.72064 3.15804 3.43934 3.43934C3.15804 3.72064 3 4.10218 3 4.5V13.5C3 13.8978 2.84196 14.2794 2.56066 14.5607C2.27936 14.842 1.89782 15 1.5 15C1.10218 15 0.720644 14.842 0.43934 14.5607C0.158035 14.2794 0 13.8978 0 13.5V4.5C0 3.30653 0.474106 2.16193 1.31802 1.31802C2.16193 0.474106 3.30653 0 4.5 0L13.5 0C13.8978 0 14.2794 0.158035 14.5607 0.43934C14.842 0.720644 15 1.10218 15 1.5C15 1.89782 14.842 2.27936 14.5607 2.56066C14.2794 2.84196 13.8978 3 13.5 3H4.5ZM33 1.5C33 1.10218 33.158 0.720644 33.4393 0.43934C33.7206 0.158035 34.1022 0 34.5 0L43.5 0C44.6935 0 45.8381 0.474106 46.682 1.31802C47.5259 2.16193 48 3.30653 48 4.5V13.5C48 13.8978 47.842 14.2794 47.5607 14.5607C47.2794 14.842 46.8978 15 46.5 15C46.1022 15 45.7206 14.842 45.4393 14.5607C45.158 14.2794 45 13.8978 45 13.5V4.5C45 4.10218 44.842 3.72064 44.5607 3.43934C44.2794 3.15804 43.8978 3 43.5 3H34.5C34.1022 3 33.7206 2.84196 33.4393 2.56066C33.158 2.27936 33 1.89782 33 1.5ZM1.5 33C1.89782 33 2.27936 33.158 2.56066 33.4393C2.84196 33.7206 3 34.1022 3 34.5V43.5C3 43.8978 3.15804 44.2794 3.43934 44.5607C3.72064 44.842 4.10218 45 4.5 45H13.5C13.8978 45 14.2794 45.158 14.5607 45.4393C14.842 45.7206 15 46.1022 15 46.5C15 46.8978 14.842 47.2794 14.5607 47.5607C14.2794 47.842 13.8978 48 13.5 48H4.5C3.30653 48 2.16193 47.5259 1.31802 46.682C0.474106 45.8381 0 44.6935 0 43.5L0 34.5C0 34.1022 0.158035 33.7206 0.43934 33.4393C0.720644 33.158 1.10218 33 1.5 33ZM46.5 33C46.8978 33 47.2794 33.158 47.5607 33.4393C47.842 33.7206 48 34.1022 48 34.5V43.5C48 44.6935 47.5259 45.8381 46.682 46.682C45.8381 47.5259 44.6935 48 43.5 48H34.5C34.1022 48 33.7206 47.842 33.4393 47.5607C33.158 47.2794 33 46.8978 33 46.5C33 46.1022 33.158 45.7206 33.4393 45.4393C33.7206 45.158 34.1022 45 34.5 45H43.5C43.8978 45 44.2794 44.842 44.5607 44.5607C44.842 44.2794 45 43.8978 45 43.5V34.5C45 34.1022 45.158 33.7206 45.4393 33.4393C45.7206 33.158 46.1022 33 46.5 33ZM9 13.5C9 13.1022 9.15804 12.7206 9.43934 12.4393C9.72064 12.158 10.1022 12 10.5 12C10.8978 12 11.2794 12.158 11.5607 12.4393C11.842 12.7206 12 13.1022 12 13.5V34.5C12 34.8978 11.842 35.2794 11.5607 35.5607C11.2794 35.842 10.8978 36 10.5 36C10.1022 36 9.72064 35.842 9.43934 35.5607C9.15804 35.2794 9 34.8978 9 34.5V13.5ZM15 13.5C15 13.1022 15.158 12.7206 15.4393 12.4393C15.7206 12.158 16.1022 12 16.5 12C16.8978 12 17.2794 12.158 17.5607 12.4393C17.842 12.7206 18 13.1022 18 13.5V34.5C18 34.8978 17.842 35.2794 17.5607 35.5607C17.2794 35.842 16.8978 36 16.5 36C16.1022 36 15.7206 35.842 15.4393 35.5607C15.158 35.2794 15 34.8978 15 34.5V13.5ZM21 13.5C21 13.1022 21.158 12.7206 21.4393 12.4393C21.7206 12.158 22.1022 12 22.5 12C22.8978 12 23.2794 12.158 23.5607 12.4393C23.842 12.7206 24 13.1022 24 13.5V34.5C24 34.8978 23.842 35.2794 23.5607 35.5607C23.2794 35.842 22.8978 36 22.5 36C22.1022 36 21.7206 35.842 21.4393 35.5607C21.158 35.2794 21 34.8978 21 34.5V13.5ZM27 13.5C27 13.1022 27.158 12.7206 27.4393 12.4393C27.7206 12.158 28.1022 12 28.5 12H31.5C31.8978 12 32.2794 12.158 32.5607 12.4393C32.842 12.7206 33 13.1022 33 13.5V34.5C33 34.8978 32.842 35.2794 32.5607 35.5607C32.2794 35.842 31.8978 36 31.5 36H28.5C28.1022 36 27.7206 35.842 27.4393 35.5607C27.158 35.2794 27 34.8978 27 34.5V13.5ZM36 13.5C36 13.1022 36.158 12.7206 36.4393 12.4393C36.7206 12.158 37.1022 12 37.5 12C37.8978 12 38.2794 12.158 38.5607 12.4393C38.842 12.7206 39 13.1022 39 13.5V34.5C39 34.8978 38.842 35.2794 38.5607 35.5607C38.2794 35.842 37.8978 36 37.5 36C37.1022 36 36.7206 35.842 36.4393 35.5607C36.158 35.2794 36 34.8978 36 34.5V13.5Z" fill="black"/>
</g>
<defs>
<clipPath id="clip0_13_475">
<rect width="48" height="48" fill="white"/>
</clipPath>
</defs>
</svg>
