<svg width="24" height="24" viewBox="0 0 24 24" fill="none" xmlns="http://www.w3.org/2000/svg">
<path d="M22.2644 2.42668C21.9797 2.18984 21.6361 2.03463 21.2702 1.97758C20.9043 1.92052 20.5297 1.96376 20.1864 2.10268L2.26542 9.33768C1.88227 9.49538 1.55613 9.76585 1.33026 10.1132C1.10439 10.4606 0.989476 10.8684 1.00076 11.2825C1.01204 11.6967 1.14899 12.0977 1.39343 12.4322C1.63787 12.7668 1.97825 13.0191 2.36942 13.1557L5.99442 14.4167L8.01442 21.0987C8.0421 21.1878 8.08216 21.2727 8.13342 21.3507C8.14142 21.3627 8.15242 21.3707 8.16042 21.3837C8.21935 21.4657 8.29051 21.5382 8.37142 21.5987C8.394 21.6164 8.41736 21.6331 8.44142 21.6487C8.53614 21.7115 8.64101 21.7576 8.75142 21.7847L8.76442 21.7857L8.77042 21.7887C8.83725 21.8021 8.90525 21.8088 8.97342 21.8087L8.99142 21.8057C9.09383 21.804 9.19536 21.7864 9.29242 21.7537C9.31542 21.7457 9.33442 21.7337 9.35642 21.7237C9.42901 21.6939 9.49783 21.6556 9.56142 21.6097C9.61207 21.5667 9.66273 21.5237 9.71342 21.4807L12.4154 18.4977L16.4454 21.6197C16.8001 21.896 17.2368 22.0462 17.6864 22.0467C18.1577 22.0461 18.6144 21.8836 18.98 21.5862C19.3456 21.2889 19.5978 20.8749 19.6944 20.4137L22.9574 4.39668C23.0312 4.03634 23.0057 3.66271 22.8837 3.31573C22.7616 2.96875 22.5476 2.66146 22.2644 2.42668ZM9.36942 14.7347C9.23092 14.8729 9.1363 15.0489 9.09741 15.2407L8.78742 16.7447L8.00342 14.1517L12.0684 12.0347L9.36942 14.7347ZM17.6714 20.0387L12.9084 16.3487C12.7091 16.1949 12.4592 16.1218 12.2084 16.1441C11.9577 16.1663 11.7245 16.2822 11.5554 16.4687L10.6894 17.4237L10.9954 15.9367L18.0784 8.85368C18.2465 8.6846 18.3486 8.46104 18.3664 8.2233C18.3841 7.98557 18.3164 7.74931 18.1754 7.55711C18.0343 7.36491 17.8293 7.22942 17.5971 7.17507C17.365 7.12072 17.1211 7.15108 16.9094 7.26068L6.74442 12.5527L3.01942 11.1897L20.9984 3.99868L17.6714 20.0387Z" fill="#242424"/>
</svg>
